<svg xmlns="http://www.w3.org/2000/svg" width="64" height="64" viewBox="0 0 64 64" fill="none" stroke="currentColor" stroke-width="2" stroke-linecap="square">
  <rect x="29" y="29" width="6" height="6"></rect>
  <line x1="32" y1="29" x2="32" y2="10"></line>
  <line x1="32" y1="10" x2="38" y2="10"></line>
  <line x1="32" y1="35" x2="32" y2="54"></line>
  <line x1="32" y1="54" x2="26" y2="54"></line>
  <line x1="35" y1="32" x2="54" y2="32"></line>
  <line x1="54" y1="32" x2="54" y2="26"></line>
  <line x1="29" y1="32" x2="10" y2="32"></line>
  <line x1="10" y1="32" x2="10" y2="38"></line>
  <line x1="35" y1="29" x2="46" y2="18"></line>
  <line x1="46" y1="18" x2="46" y2="14"></line>
  <line x1="29" y1="35" x2="18" y2="46"></line>
  <line x1="18" y1="46" x2="18" y2="50"></line>
  <line x1="35" y1="35" x2="46" y2="46"></line>
  <line x1="46" y1="46" x2="50" y2="46"></line>
  <line x1="29" y1="29" x2="18" y2="18"></line>
  <line x1="18" y1="18" x2="14" y2="18"></line>
</svg>